<svg width="24" height="25" viewBox="0 0 24 25" fill="none" xmlns="http://www.w3.org/2000/svg">
<path d="M22.9807 12.6395C22.8784 14.4018 22.3534 16.1136 21.45 17.6303C20.5467 19.1469 19.2916 20.4239 17.7907 21.3533C16.2898 22.2827 14.5873 22.8373 12.8269 22.9701C11.0666 23.1029 9.30008 22.8101 7.67672 22.1165C7.50476 22.0383 7.31632 22.0033 7.12776 22.0145C6.93921 22.0257 6.75623 22.0828 6.59474 22.1807C5.56465 22.8447 3.96255 22.7575 3.28295 22.6848C3.26051 22.6815 3.23958 22.6715 3.22287 22.6561C3.20617 22.6408 3.19446 22.6208 3.18928 22.5987C3.18409 22.5766 3.18567 22.5535 3.1938 22.5323C3.20193 22.5111 3.21623 22.4929 3.23486 22.4799C3.82858 22.097 5.13158 21.0941 4.3792 19.9334C3.04832 18.6551 2.06045 17.0625 1.50652 15.3024C0.95259 13.5422 0.850408 11.671 1.20939 9.86097C1.56838 8.05096 2.37699 6.36034 3.56077 4.94478C4.74455 3.52922 6.26545 2.4342 7.98346 1.76055C9.70146 1.0869 11.5613 0.856276 13.3919 1.0899C15.2224 1.32352 16.9647 2.01388 18.4584 3.09742C19.9522 4.18097 21.1493 5.62287 21.9395 7.29037C22.7298 8.95787 23.0878 10.7974 22.9807 12.6395Z" fill="#BAEBFF"/>
<path d="M12.0272 1.88095C14.6754 1.88783 17.2161 2.9299 19.1064 4.78462C20.9968 6.63934 22.0871 9.15967 22.1443 11.8073C22.2016 14.455 21.2214 17.0202 19.413 18.9549C17.6047 20.8896 15.1115 22.0406 12.466 22.162H12.0272C10.7736 22.1639 9.53055 21.9326 8.36158 21.4798C8.22654 21.4282 8.08339 21.401 7.93883 21.3995C7.73478 21.3982 7.53512 21.4589 7.36625 21.5734C6.66257 22.063 5.63781 22.162 4.91272 22.162C4.68262 22.162 4.48195 22.1621 4.32944 22.1406C4.3078 22.1398 4.28698 22.1321 4.27003 22.1186C4.25308 22.1051 4.24087 22.0866 4.2352 22.0657C4.22952 22.0448 4.23067 22.0226 4.23848 22.0024C4.24629 21.9822 4.26035 21.965 4.27861 21.9533C4.81373 21.5841 5.98297 20.6155 5.25253 19.5694C3.76666 18.2369 2.70693 16.4956 2.20602 14.5636C1.70512 12.6317 1.7853 10.5948 2.43655 8.70823C3.08779 6.82162 4.28115 5.16907 5.86718 3.95749C7.45322 2.74592 9.36144 2.02917 11.3529 1.897C11.5777 1.88095 11.8024 1.87292 12.0272 1.87292V1.88095ZM12.0272 0C11.7596 0 11.492 -6.53264e-06 11.2245 0.0267495C8.94317 0.177378 6.75219 0.975703 4.90874 2.328C3.06529 3.6803 1.6459 5.53044 0.817186 7.66123C-0.0115302 9.79201 -0.215169 12.115 0.230183 14.3575C0.675534 16.5999 1.75138 18.6688 3.33143 20.3212C3.29397 20.3533 3.25117 20.3828 3.20568 20.4149C2.86974 20.6472 2.61408 20.9779 2.47394 21.3615C2.3338 21.7451 2.31607 22.1628 2.42319 22.5569C2.5303 22.951 2.75701 23.3023 3.07205 23.5622C3.3871 23.8221 3.77499 23.9779 4.18229 24.0082C4.42042 24.0269 4.66388 24.035 4.90469 24.035C5.98636 24.0714 7.06016 23.8388 8.02979 23.358C9.3137 23.8117 10.6655 24.0433 12.0272 24.043C12.1984 24.043 12.3723 24.043 12.5462 24.043C15.6774 23.8956 18.6272 22.5308 20.7663 20.2395C22.9055 17.9482 24.0649 14.9118 23.9972 11.7778C23.9295 8.64391 22.64 5.66043 20.4039 3.46367C18.1677 1.26691 15.1618 0.0307167 12.0272 0.018723V0Z" fill="#202B93"/>
<path d="M6.32262 14.1374C7.28608 14.1374 8.06712 13.3564 8.06712 12.3929C8.06712 11.4295 7.28608 10.6484 6.32262 10.6484C5.35916 10.6484 4.57812 11.4295 4.57812 12.3929C4.57812 13.3564 5.35916 14.1374 6.32262 14.1374Z" fill="#202B93"/>
<path d="M12.2738 14.1374C13.2373 14.1374 14.0183 13.3564 14.0183 12.3929C14.0183 11.4295 13.2373 10.6484 12.2738 10.6484C11.3103 10.6484 10.5293 11.4295 10.5293 12.3929C10.5293 13.3564 11.3103 14.1374 12.2738 14.1374Z" fill="#202B93"/>
<path d="M18.0961 14.1374C19.0595 14.1374 19.8406 13.3564 19.8406 12.3929C19.8406 11.4295 19.0595 10.6484 18.0961 10.6484C17.1326 10.6484 16.3516 11.4295 16.3516 12.3929C16.3516 13.3564 17.1326 14.1374 18.0961 14.1374Z" fill="#202B93"/>
</svg>
