<svg width="24" height="25" viewBox="0 0 24 25" fill="none" xmlns="http://www.w3.org/2000/svg">
<g clip-path="url(#clip0_1031_12201)">
<path d="M12 23.9912C9.34895 23.9893 6.80719 22.9964 4.93226 21.2322C3.05728 19.469 2.0032 17.0774 2 14.5821C2 6.7746 11.0272 1.37604 11.4115 1.15073C11.7708 0.93804 12.2292 0.93804 12.5885 1.15073C12.9729 1.37615 22 6.7746 22 14.5821C21.9969 17.0775 20.9427 19.4691 19.0677 21.2322C17.1928 22.9964 14.6512 23.9892 12 23.9912H12ZM18.6666 14.5821C18.6666 14.0048 18.1687 13.5373 17.5552 13.5373C16.9416 13.5373 16.4448 14.0048 16.4448 14.5821C16.4427 15.6916 15.975 16.754 15.1416 17.5381C14.3083 18.3221 13.1781 18.7632 12 18.7642C11.3865 18.7642 10.8886 19.2327 10.8886 19.81C10.8886 20.3873 11.3865 20.8548 12 20.8548C13.7677 20.8528 15.4624 20.1923 16.7115 19.0161C17.9615 17.84 18.6646 16.2453 18.6667 14.5821L18.6666 14.5821Z" fill="#FFD06D"/>
</g>
<defs>
<clipPath id="clip0_1031_12201">
<rect width="24" height="24" fill="white" transform="translate(0 0.991211)"/>
</clipPath>
</defs>
</svg>
