<svg width="48" height="49" viewBox="0 0 48 49" fill="none" xmlns="http://www.w3.org/2000/svg">
<path d="M0.656939 30.6693C0.809034 39.5084 10.0772 46.2658 15.9996 47.4317C18.1733 47.8772 18.675 48.0104 19.1854 48.0775C19.6278 48.1357 20.0768 48.1442 21.6267 48.2633C24.4215 48.8016 27.3823 48.8124 30.2592 48.5349C38.4522 48.5349 50.8178 37.264 47.424 19.9328C47.1341 17.887 46.5829 15.922 45.7565 14.1819C43.6327 9.70999 40.1672 5.7447 35.8957 3.85613C35.8127 3.81157 35.7276 3.76575 35.6405 3.71883C33.4784 2.55407 30.0635 0.714376 25.2046 0.714355C19.7138 0.714332 12.8053 1.8924 8.17976 5.7089C1.23999 11.4348 -1.34302 20.5914 0.656939 30.6693Z" fill="#BAEBFF"/>
<rect x="26.3945" y="19.7183" width="6.25461" height="5.00369" fill="white"/>
<path fill-rule="evenodd" clip-rule="evenodd" d="M27.4907 14.7144C27.9143 14.7144 28.2577 15.0577 28.2577 15.4813V17.4151C28.2577 17.8386 28.601 18.182 29.0246 18.182H31.0187C32.553 18.182 33.1656 20.089 33.3957 20.7832L34.0971 23.1637C34.1357 23.2947 34.2556 23.385 34.3922 23.386C35.6965 23.386 36.6931 24.5126 36.6931 25.9872V27.3379C36.6931 27.5498 36.8651 27.7215 37.077 27.721C37.2889 27.7206 37.4609 27.8922 37.4609 28.1041V30.4209C37.4609 30.8445 37.1176 31.1879 36.694 31.1879H35.1606C34.737 31.1879 34.4017 31.5348 34.3185 31.9501C34.0091 33.4937 32.7817 34.6555 31.3264 34.6555C29.871 34.6555 28.6437 33.4937 28.3343 31.9501C28.251 31.5348 27.9157 31.1879 27.4921 31.1879H21.3571C20.9335 31.1879 20.5982 31.5348 20.515 31.9501C20.2056 33.4937 18.9782 34.6555 17.5229 34.6555C16.0675 34.6555 14.8402 33.4937 14.5308 31.9501C14.4476 31.5348 14.1122 31.1879 13.6886 31.1879H12.1551C11.7316 31.1879 11.3882 30.8446 11.3881 30.4211L11.3842 15.4815C11.3841 15.0579 11.7275 14.7144 12.1512 14.7144H27.4907ZM32.3215 21.2173C32.0914 20.4369 31.7074 19.4826 31.0172 19.4826L29.0241 19.4838C28.6007 19.484 28.2576 19.8273 28.2576 20.2508V22.619C28.2576 23.0426 28.601 23.386 29.0246 23.386H31.9212C32.43 23.386 32.7978 22.8996 32.6592 22.4101L32.3215 21.2173Z" fill="#202B93"/>
<circle cx="17.6376" cy="32.2275" r="1.25092" fill="white"/>
<circle cx="31.3994" cy="32.2275" r="1.25092" fill="white"/>
</svg>
