<svg width="49" height="48" viewBox="0 0 49 48" fill="none" xmlns="http://www.w3.org/2000/svg">
<path d="M0.72835 29.4361C0.880445 38.0949 10.1486 44.7143 16.071 45.8565C18.2447 46.2928 18.7464 46.4234 19.2568 46.4891C19.6992 46.5461 20.1482 46.5544 21.6982 46.6711C24.4929 47.1984 27.4537 47.209 30.3306 46.9372C38.5236 46.9372 50.8893 35.8962 47.4954 18.9187C47.2055 16.9147 46.6543 14.9898 45.8279 13.2852C43.7041 8.90458 40.2386 5.02021 35.9671 3.17019C35.8841 3.12653 35.799 3.08165 35.7119 3.03569C33.5499 1.8947 30.1349 0.0925494 25.276 0.0925293C19.7852 0.0925066 12.8767 1.24654 8.25117 4.98514C1.3114 10.5942 -1.27161 19.5639 0.72835 29.4361Z" fill="#BAEBFF"/>
<path d="M33.4908 24.2583L23.8131 14.5807C23.4901 14.1936 22.9748 14 22.4583 14H16.0069C14.9097 14 14.0714 14.8383 14.0714 15.9355V22.3869C14.0714 22.9034 14.265 23.4187 14.6521 23.7417L24.3297 33.4193C24.7168 33.8064 25.2333 34 25.6846 34C26.1358 34 26.6523 33.8064 27.0394 33.4193L33.4908 26.968C34.265 26.2579 34.265 24.9684 33.4908 24.2583ZM18.5872 19.8066C17.8771 19.8066 17.2965 19.2259 17.2965 18.5158C17.2965 17.8057 17.8771 17.225 18.5872 17.225C19.2973 17.225 19.878 17.8057 19.878 18.5158C19.878 19.2259 19.2973 19.8066 18.5872 19.8066Z" fill="#202B93"/>
</svg>
