<svg width="48" height="48" viewBox="0 0 48 48" fill="none" xmlns="http://www.w3.org/2000/svg">
<path d="M0.656939 29.4361C0.809034 38.0949 10.0772 44.7143 15.9996 45.8565C18.1733 46.2928 18.675 46.4234 19.1854 46.4891C19.6278 46.5461 20.0768 46.5544 21.6267 46.6711C24.4215 47.1984 27.3823 47.209 30.2592 46.9372C38.4522 46.9372 50.8178 35.8962 47.424 18.9187C47.1341 16.9147 46.5829 14.9898 45.7565 13.2852C43.6327 8.90458 40.1672 5.02021 35.8957 3.17019C35.8127 3.12653 35.7276 3.08165 35.6405 3.03569C33.4784 1.8947 30.0635 0.0925494 25.2046 0.0925293C19.7138 0.0925066 12.8053 1.24654 8.17976 4.98514C1.23999 10.5942 -1.34302 19.5639 0.656939 29.4361Z" fill="#BAEBFF"/>
<path d="M25.5647 14.7936C26.536 14.3631 27.5214 11.3398 27.6322 10.5H20.4213C20.5308 11.3365 21.5085 14.3576 22.4758 14.7882C19.1383 16.6269 12.0524 20.6445 12.0524 25.3177C12.0524 31.0285 10.5762 34.5 23.2887 34.5C36 34.5 36 31.0285 36 25.3177C36 20.6502 28.8871 16.6382 25.5647 14.7939V14.7936Z" fill="#202B93"/>
<path d="M28.5 21L25.5 25.5L28.5 27L25.5 30" stroke="white" stroke-width="1.5"/>
</svg>
