<svg xmlns="http://www.w3.org/2000/svg" xmlns:xlink="http://www.w3.org/1999/xlink" width="401.522" height="280.905" viewBox="0 0 401.522 280.905">
  <defs>
    <clipPath id="clip-path">
      <rect id="Rectangle_40" data-name="Rectangle 40" width="401.522" height="280.905" transform="translate(0 0)" fill="#41154c"/>
    </clipPath>
  </defs>
  <g id="Group_67" data-name="Group 67" transform="translate(0 0.001)">
    <g id="Group_66" data-name="Group 66" transform="translate(0 -0.001)" clip-path="url(#clip-path)">
      <path id="Path_422" data-name="Path 422" d="M.046,274.145c.456-.026.911-.069,1.368-.076,19.128-.29,38.257-.5,57.383-.894,12.554-.26,25.1-.9,37.653-1.16,7.558-.154,15.125.117,22.689.176,3.482.027,6.965,0,10.647,0,0-.736.018-1.158,0-1.579-1.07-22.5-.869-45-.356-67.508.521-22.839.137-45.673-.106-68.511-.109-10.23.529-20.476,1.09-30.7.141-2.572,1.169-5.13,2.015-7.618a7,7,0,0,1,4.105-3.935,3.974,3.974,0,0,0,.52-.333c.009-.124.045-.213.015-.264-1.365-2.389-.609-4.436,1-6.358a4.345,4.345,0,0,0,.876-4.42c-.375-1.145-.6-2.339-.92-3.6-.485.257-.888.483-1.3.688a4.615,4.615,0,0,1-5.4-.8A4.365,4.365,0,0,1,130.3,72.1a13,13,0,0,1,6.408-6.41,42.822,42.822,0,0,1,10.815-3.3,148.022,148.022,0,0,1,22.732-2.58c11.121-.551,22.231-.93,33.351-.081a38.387,38.387,0,0,1,9.671,2.029c.243.084.482.179.719.277,3.129,1.3,3.7,2.131,3.687,5.475.535.16,1.085.361,1.651.489a9.84,9.84,0,0,1,5.614,3.646,3.983,3.983,0,0,1,.179,5.264c-.375.543-.823,1.035-1.2,1.577-.937,1.343-.8,2.133.364,3.27a18.024,18.024,0,0,1,2.322,2.616,3.4,3.4,0,0,1,.29,3.649,3.14,3.14,0,0,0-.2,1.706c.125,1,.579,1.661,1.808,1.547,2.18-.2,4.37-.285,6.8-.432a7.323,7.323,0,0,0-.671-.813,21.423,21.423,0,0,1-6.227-9.578,32.726,32.726,0,0,1,2.4-27.85,62.938,62.938,0,0,0,6.374-17.742c.5-2.294,1.161-4.55,1.727-6.829a27.4,27.4,0,0,1,5.519-10.548,5.9,5.9,0,0,0,1.161-2.743c.514-3.632.8-7.3,1.319-10.929.424-2.98,1.367-3.707,4.412-3.747,3.227-.043,6.456-.1,9.683-.043a21.294,21.294,0,0,1,3.7.538c1.7.336,2.329,1.128,2.523,2.851.39,3.459.783,6.918,1.262,10.364a4.1,4.1,0,0,0,.909,1.826c2.578,3.27,5.926,5.648,9.263,8.072a65.725,65.725,0,0,1,7.9,6.479c4.581,4.574,6.57,10.5,7.916,16.676,1.443,6.62-.561,12.5-4.075,17.972-1.362,2.121-3.083,4.01-4.635,6.01-1.62,2.088-3.315,4.125-4.817,6.294a26.989,26.989,0,0,0-2.385,4.45c-1.139,2.572-2.15,5.2-3.273,7.948.6.126,1.258.295,1.929.4,2.355.374,4.741.6,7.066,1.113,4.248.932,6.615,3.587,7.112,7.9a51.694,51.694,0,0,1,.257,5.606q.1,16.192.143,32.385c.04,11.527,0,23.055.118,34.582.106,10.425.432,20.847.553,31.272.071,6.164.038,12.333-.139,18.494-.213,7.42-.039,14.82.279,22.235.367,8.58.295,17.179.458,25.769.058,3.045-.22,2.8,2.751,2.737,8.4-.191,16.8-.554,25.209-.676,9.985-.145,19.972-.141,29.958-.144,11.086,0,22.174-.026,33.259.126,5.5.075,10.992.522,16.488.808a5.318,5.318,0,0,1,.8.164q0,.14-.007.28c-.517,0-1.034.006-1.551,0-9.729-.126-19.458-.36-29.187-.357q-27.313.009-54.626.255c-7.268.057-14.535.333-21.8.46-.9.016-1.274.3-1.286,1.175-.015,1.1-.137,2.2-.085,3.3.049,1.06-.347,1.4-1.4,1.41q-12.061.153-24.12.4c-16.48.341-32.959.812-49.441,1.038-14.061.192-28.125.063-42.188.171-13.291.1-26.581.329-39.872.5l-.33,0c-3.84.035-4.994-.974-5.426-4.754a15.759,15.759,0,0,1-.188-2.082c.022-1.08-.482-1.324-1.486-1.309-6.312.091-12.63.322-18.935.137-13.562-.4-27.087.523-40.628.86-11.011.274-22.022.57-33.034.792q-13.6.275-27.2.388c-2.567.025-5.137-.138-7.7-.232A6.689,6.689,0,0,1,0,274.509l.046-.365m291.347-86.027h-.126c0-1.1.022-2.2,0-3.3-.3-13.064-.764-26.127-.887-39.193-.133-14.131.06-28.265.071-42.4a32.113,32.113,0,0,0-.412-5.15c-.488-3.007-2.085-5.232-5.208-5.836-3.815-.738-7.653-1.476-11.516-1.83-8.366-.766-16.738.034-25.078.562-7.271.46-14.5,1.574-21.811,1.626-1.21.009-2.422.173-3.63.14-11.266-.305-22.531-.647-33.8-.958-8-.221-15.975-1.109-23.988-.547-3.3.231-6.591.473-9.889.645q-7.258.378-14.521.655c-3.386.129-5.845,1.606-7.071,4.813a20,20,0,0,0-1.419,4.831c-.553,5.069-1.105,10.155-1.265,15.246-.24,7.667-.207,15.344-.182,23.017.049,15.051.343,30.1.218,45.153-.126,15.231-.708,30.458-.939,45.689-.083,5.5.274,11,.428,16.506.224,7.962.411,15.925.692,23.884a35.783,35.783,0,0,0,.711,5.991c.353,1.7.951,1.99,2.67,1.965,16.482-.237,32.967-.368,49.447-.736,31.566-.705,63.132-1.208,94.707-1.173,3.927,0,7.854-.118,11.782-.126,1.019,0,1.39-.321,1.4-1.38.041-7.379.253-14.758.19-22.135-.077-9.1-.473-18.2-.542-27.3-.1-12.885-.025-25.771-.025-38.657M260.919,89c4.75.187,8.234.3,11.716.476a1.784,1.784,0,0,0,2.023-1.273c.832-2.2,1.75-4.358,2.6-6.547a30.412,30.412,0,0,1,4.5-8.036c2.055-2.586,4.229-5.095,6.085-7.818,3.628-5.322,6.079-11.114,5.487-17.732-.807-9.02-5.171-16.067-12.379-21.417-1.472-1.093-3.033-2.067-4.552-3.1a35.923,35.923,0,0,1-8.136-7.2,10.85,10.85,0,0,0-10.274-4.347c-7.567.958-13.323,4.675-16.2,12a52.243,52.243,0,0,0-2.588,8.631,70.007,70.007,0,0,1-7.64,20.658,31.235,31.235,0,0,0-3.51,8.742c-1.708,8.176-.146,15.972,3.878,23.256a10.945,10.945,0,0,0,5.082,4.73,5.476,5.476,0,0,0,2.529.467c7.543-.489,15.081-1.046,21.378-1.5M140.547,83c-.372.738-.817,1.7-1.33,2.617-.464.831-1.1,1.576-1.489,2.436a2.263,2.263,0,0,0,2.343,3.426c8.831-.507,17.656-1.158,26.493-1.48,16.344-.6,32.649.893,48.978,1.171,3.192.054,6.383.178,9.574.3.823.03.978-.261.844-1.053a5.235,5.235,0,0,1,.035-2.358,3.492,3.492,0,0,0-.577-3.322,10.509,10.509,0,0,0-1.72-1.68,3.307,3.307,0,0,1-.8-4.773c.406-.652.93-1.228,1.37-1.86a2.921,2.921,0,0,0,.027-3.857,7.918,7.918,0,0,0-5.258-3.532,87.055,87.055,0,0,0-9.8-1.325c-4.429-.273-8.878-.262-13.318-.271-5.1-.01-10.2.051-15.3.153-6.714.135-13.433.589-20.138.43a60.863,60.863,0,0,0-13.546,1.243,20.746,20.746,0,0,0-5.419,2.283,3.366,3.366,0,0,0-1.582,2,13.1,13.1,0,0,0-.031,6.746,2.823,2.823,0,0,0,2.393,2.15,22.944,22.944,0,0,0,3.721.314c12-.375,23.994-.728,35.986-1.226,7.847-.326,15.686-.874,23.527-1.336,1.221-.072,2.438-.22,3.657-.332l.072.308a9.356,9.356,0,0,1-1.494.4c-3.719.384-7.435.855-11.165,1.077-16.122.959-32.242,2.019-48.406,1.833-2.514-.029-5.025-.309-7.647-.48M186.519,66.3c5.378.107,12.277.216,19.175.393,3.154.081,6.3.315,9.458.419.442.015,1.142-.2,1.283-.511a2.289,2.289,0,0,0-.174-1.506,1.624,1.624,0,0,0-.747-.779,18.7,18.7,0,0,0-3.464-1.644,58.11,58.11,0,0,0-15.441-2.064c-9.726-.045-19.449-.018-29.158.683-6.4.462-12.835.461-19.1,2.176-4.133,1.131-8.4,1.8-12.238,3.87a11.693,11.693,0,0,0-5.073,5.325,3.549,3.549,0,0,0,.625,4.18,2.983,2.983,0,0,0,3.609.822c1.487-.62,3.213-1.109,3.245-3.254a3.621,3.621,0,0,1,1.661-3.194,18.059,18.059,0,0,1,4.682-2.334,43.325,43.325,0,0,1,8.561-1.4c10.52-.486,21.05-.77,33.1-1.183m80.3-53.034c-.142-3.654-.266-6.914-.4-10.173a1.42,1.42,0,0,0-1.269-1.444,38.459,38.459,0,0,0-4.562-.639c-2.857-.144-5.723-.127-8.584-.2-3-.078-4.268.914-4.608,3.911-.36,3.169-.576,6.355-.844,9.535a9.778,9.778,0,0,0,.06,1.143,20.828,20.828,0,0,1,9.761-4.335c3.619-.505,7.1-.211,10.441,2.2" transform="translate(0 0.001)" fill="#41154c"/>
      <path id="Path_423" data-name="Path 423" d="M1223.521,1233.9l3.93,2.119v-16.2a14.574,14.574,0,0,0-4.845,5.485c-1.068,2.4-.659,4.8-.147,7.311a5.547,5.547,0,0,1-.474-.694c-1.763-3.636-1.122-7.3,1.833-10.428a21.8,21.8,0,0,1,1.9-1.839,11.925,11.925,0,0,0,3.338-5.2c1.811-4.683,3.638-9.373,5.742-13.929,2.74-5.934,7.5-10.154,12.618-14.016,10.534-7.945,22.576-10.33,35.444-9.734a57.067,57.067,0,0,1,18.79,3.84,34.7,34.7,0,0,1,9.519,5.662q3.2,2.7,6.4,5.392a5.178,5.178,0,0,1,.788.767c4.688,6.112,9.718,12.009,12.271,19.466a1.374,1.374,0,0,0,1.51,1c2.092-.039,4.185-.068,6.278-.075,2.49-.008,3.233.651,3.321,3.164.207,5.907.338,11.817.528,17.725.064,1.981.234,3.959.321,5.939.126,2.867-.972,4.142-3.845,4.392q-3.675.32-7.362.49a1.719,1.719,0,0,0-1.814,1.363,38.3,38.3,0,0,1-5.318,10.7c-2.423,3.359-4.708,6.821-7.215,10.116a25.6,25.6,0,0,1-9.3,7.438c-6.365,3.116-12.964,5.658-20.049,6.357-6.5.641-13.105,1.077-19.489-.768a57.536,57.536,0,0,1-25.728-14.894c-3.407-3.479-5.628-7.776-8.158-11.858-2.168-3.5-4.431-6.995-5.385-11.039-.688-2.917-1.935-5.258-4.527-6.82a5,5,0,0,1-.815-.738,1.449,1.449,0,0,1-.177-.267l.115-.224m56.177-55.945q.006-.157.012-.314c-3.031.269-6.086.377-9.087.838-7.583,1.164-14.81,3.3-21.059,8.049-4.983,3.791-9.718,7.918-12.744,13.4-3.952,7.157-7.586,14.556-7.866,23.018-.133,4.031-.363,8.072-.205,12.1.166,4.243,1.972,8.073,3.617,11.939,6.516,15.32,18.107,25.159,33.591,30.319,13.349,4.449,26.517,2.81,39.209-3.059a31.772,31.772,0,0,0,11.271-8.613c6.067-7.283,10.833-15.244,13.38-24.431,1.932-6.968,2-14.057,1.358-21.2a27.769,27.769,0,0,0-3.584-11.8c-.817-1.393-1.66-2.771-2.508-4.146-3.255-5.276-6.849-10.278-11.861-14.062-3.042-2.3-5.96-4.861-9.284-6.657a45.558,45.558,0,0,0-24.239-5.373m50.978,64.946c3.239-.177,6.384-.29,9.514-.578.5-.046,1.089-.808,1.336-1.371a4.582,4.582,0,0,0,.146-1.951c-.239-5.682-.511-11.362-.748-17.044-.086-2.053-.072-4.11-.164-6.163-.067-1.494-.592-1.972-2.088-1.881-2.087.126-4.172.315-6.252.529-.316.032-.6.34-.9.52.336.267.641.7,1.013.764a9.93,9.93,0,0,0,1.974,0c3.641-.078,3.753.022,3.956,3.646.029.524,0,1.05,0,1.576h-.4c-.1-1.084-.182-2.169-.292-3.252-.068-.67-.31-1.283-1.1-1.269-1.559.029-3.116.135-4.425.2.27,4.062.807,7.972.712,11.866s-.82,7.752-1.294,11.847h4.221l.011.5c-1.1.08-2.206.2-3.311.23-1.581.044-1.582.016-1.915,1.839" transform="translate(-1069.631 -1030.798)" fill="#41154c"/>
      <path id="Path_424" data-name="Path 424" d="M1118.583,793.073a88.789,88.789,0,0,0-16.048.507c-1.088.122-2.184.2-3.279.238a2.08,2.08,0,0,1-2.467-1.831,6.52,6.52,0,0,1-.32-1.944c.126-3.338.214-6.682.534-10a9.339,9.339,0,0,1,1.321-3.79,3.181,3.181,0,0,1,2.219-1.077c2.19-.2,4.4-.188,6.6-.239,4.843-.111,9.687-.19,14.53-.319,2.273-.06,4.544-.261,6.817-.3,1.9-.03,3.816.03,5.717.157a2.114,2.114,0,0,1,2.229,2.029,22.049,22.049,0,0,1,.353,3.167q.209,5.337.329,10.678c.04,1.762-.4,2.193-2.156,2.356a86.482,86.482,0,0,1-16.381.37m-21.136-6.815c0,1.456-.023,2.7,0,3.951.053,2.394.851,3.015,3.237,2.79,3.831-.362,7.665-.771,11.507-.922,4.91-.193,9.829-.121,14.744-.219,2.639-.053,5.278-.193,7.914-.351,1.437-.086,1.742-.368,1.665-1.743-.228-4.028-.464-8.058-.845-12.073-.186-1.963-.122-2.4-2.824-2.38-5.869.053-11.736.265-17.6.395q-7.041.155-14.082.259a2.381,2.381,0,0,0-2.527,1.7,9.194,9.194,0,0,0-.5,1.794c-.27,2.331-.481,4.669-.694,6.8" transform="translate(-960.527 -678.31)" fill="#41154c"/>
      <path id="Path_425" data-name="Path 425" d="M1479.653,775.2q6.162,0,12.324,0c1.857,0,2.509.442,2.695,2.307.2,2.036.172,4.1.17,6.151s-.1,4.1-.144,6.148c-.041,2.118-.464,2.668-2.526,3.256-3.215.916-6.456.588-9.722.343-4.128-.311-8.272-.409-12.407-.633a13.206,13.206,0,0,1-2.7-.39c-1.637-.441-2.21-1.156-2.31-2.909-.127-2.233-.154-4.472-.228-6.709-.05-1.5-.108-3.006-.159-4.509-.08-2.375.675-3.144,3.019-3.078l11.988.339,0-.316m.567.686c0,.033,0,.067,0,.1-3.744,0-7.488-.019-11.231.014a7.538,7.538,0,0,0-2.481.353,1.656,1.656,0,0,0-.922,1.243q.446,6.2,1.1,12.39c.15,1.412.812,1.887,2.225,1.922,4.77.119,9.541.307,14.311.3,3-.007,6.006-.317,9.008-.5a1.53,1.53,0,0,0,1.591-1.711c.072-3.924.195-7.848.233-11.772.02-2.062-.329-2.337-2.379-2.335q-5.726.006-11.451,0" transform="translate(-1283.051 -679.065)" fill="#41154c"/>
      <path id="Path_426" data-name="Path 426" d="M2018.392,780.221c4.179,0,8.359.021,12.539-.007,3.021-.02,3.311.223,3.543,3.219q.335,4.331.7,8.66c.164,1.958-.59,2.924-2.692,3.068-3.4.232-6.8.427-10.208.476-5.316.076-10.634.029-15.951,0a13.852,13.852,0,0,1-2.612-.276,1.792,1.792,0,0,1-1.545-1.973c.075-3.557.127-7.116.256-10.671.063-1.74.716-2.211,2.443-2.214,2.418,0,4.835-.108,7.254-.137,2.09-.025,4.18-.005,6.271-.005v-.144m.42.849v.172c-4.512,0-9.024-.03-13.536.017-1.508.016-1.84.4-2.048,1.888a13.677,13.677,0,0,0-.128,1.645q-.062,3.248-.093,6.5c-.035,3.736-.03,3.773,3.777,3.733,5.944-.063,11.889-.135,17.831-.3,2.6-.073,5.194-.385,7.789-.6a1.556,1.556,0,0,0,1.594-1.735c-.069-3.3-.173-6.6-.262-9.9a1.221,1.221,0,0,0-1.386-1.335c-1.358-.011-2.715-.068-4.072-.073-3.155-.012-6.311,0-9.466,0" transform="translate(-1753.939 -683.481)" fill="#41154c"/>
      <path id="Path_427" data-name="Path 427" d="M1769.128,797.693a7.16,7.16,0,0,1,6.978,7.546c-.125,3.835-3.792,7.437-7.5,7.367-4.212-.079-7.33-3.606-7.314-8.019a7.1,7.1,0,0,1,7.835-6.894m-4.245,11.7a7.1,7.1,0,0,0,1.776-.6,57.1,57.1,0,0,0,5.095-3.411,9.938,9.938,0,0,0,1.808-2.319,1.726,1.726,0,0,0-.046-2.154,1.763,1.763,0,0,0-2.079-.564,2.858,2.858,0,0,0-.733.221,57.758,57.758,0,0,0-5.724,3.621,7.7,7.7,0,0,0-1.957,3.087c-.448,1.064.421,2.1,1.86,2.117m-.641.663c1.668,2.068,5.416,2.37,7.714.813,2.447-1.658,3.953-5.488,2.643-7.411-2.755,3.269-6.008,5.767-10.357,6.6m-1.871-4.122c2.185-3.38,5.265-5.258,8.71-6.73-2.187-1.019-4.189-.471-6.093.655-2.242,1.327-2.994,3.366-2.617,6.075" transform="translate(-1542.927 -698.772)" fill="#41154c"/>
      <path id="Path_428" data-name="Path 428" d="M1912.217,864.008a1.912,1.912,0,0,1,1.967,1.684,2.14,2.14,0,0,1-1.96,1.873c-.872-.046-1.5-.932-1.5-2.1a1.28,1.28,0,0,1,1.493-1.455m-.125.793-.6.334.654,1.648.979-.712-1.037-1.27" transform="translate(-1673.831 -756.887)" fill="#41154c"/>
      <path id="Path_429" data-name="Path 429" d="M1974.166,356.12c-.287,4.15-.483,7.154-.708,10.155-.145,1.937-.715,2.587-2.636,2.946a72.276,72.276,0,0,1-20.816,1.086c-2.715-.282-3.527-1.157-3.48-3.9.093-5.319.215-10.638.334-15.957.012-.513.087-1.024.134-1.535a2.181,2.181,0,0,1,1.74-2.152,42.979,42.979,0,0,1,6.164-1.021c4.946-.275,9.9-.375,14.856-.494,2.835-.068,3.641.432,4.011,3.232.383,2.894.319,5.847.4,7.636m-26.3,2.35h-.268c0,2.826,0,5.653,0,8.479,0,1.7.3,2.214,1.962,2.3a69.872,69.872,0,0,0,9.012.094c4.052-.312,8.079-.978,12.111-1.528A1.946,1.946,0,0,0,1972.59,366c.509-5.924,1.1-11.847.27-17.794-.274-1.961-.626-2.313-2.614-2.274-3.744.074-7.488.187-11.231.269a37.559,37.559,0,0,0-9.481,1.153c-1.073.3-1.672.836-1.671,1.975q.007,4.569,0,9.138" transform="translate(-1705.193 -302.443)" fill="#41154c"/>
      <path id="Path_430" data-name="Path 430" d="M2234.757,264.448c1.365,1.137,2.8,2.2,4.082,3.425a15.365,15.365,0,0,1,4.687,15.232,34.773,34.773,0,0,1-6.152,12.8c-.085.118-.169.27-.291.323-.254.112-.573.287-.789.214-.182-.062-.324-.428-.365-.678a3.565,3.565,0,0,1,.04-.983c1.156-9.324,1.04-18.583-1.365-27.733a21.8,21.8,0,0,1-.357-2.3l.51-.306m2.342,28.512.416.123c1.065-2.191,2.191-4.354,3.183-6.578,3.005-6.741,2.187-12.844-3.163-18.144-.364-.361-.685-.765-1.047-1.127a5.823,5.823,0,0,0-.747-.5c1.725,8.836,2.518,17.484,1.358,26.231" transform="translate(-1957.243 -231.661)" fill="#41154c"/>
      <path id="Path_431" data-name="Path 431" d="M1993.11,261.729a27.686,27.686,0,0,1,16.881-.975c-5.65-.061-11.319-.462-16.881.975" transform="translate(-1746.003 -227.669)" fill="#41154c"/>
      <path id="Path_432" data-name="Path 432" d="M1328.278,672.742c8.448-.655,16.879-1.575,25.368-1.63,7.493-.049,14.992-.028,22.36,1.623-7.949-.148-15.9-.492-23.847-.387s-15.9.658-23.847,1.015q-.017-.31-.034-.621" transform="translate(-1163.597 -587.896)" fill="#41154c"/>
      <path id="Path_433" data-name="Path 433" d="M1571.9,560.03c.416,0,.832-.006,1.247,0,5.356.093,10.715.1,16.065.323a51.338,51.338,0,0,1,7.171,1,3.8,3.8,0,0,1,3.065,2.284,4.628,4.628,0,0,1-1.1-.276,16.273,16.273,0,0,0-7.912-2.031c-5.788-.309-11.579-.558-17.368-.833-.39-.018-.779-.047-1.168-.071q0-.2,0-.4" transform="translate(-1377.017 -490.595)" fill="#41154c"/>
      <path id="Path_434" data-name="Path 434" d="M1519.084,558.772l-3.621-.2.021-.412,3.582.185q.009.212.018.423" transform="translate(-1327.575 -488.962)" fill="#41154c"/>
      <path id="Path_435" data-name="Path 435" d="M1995.763,48.1q.26-3.936.52-7.873l.544.038q-.289,3.935-.578,7.869l-.486-.035" transform="translate(-1748.327 -35.236)" fill="#41154c"/>
      <path id="Path_436" data-name="Path 436" d="M2010.35,46.025a9.859,9.859,0,0,1,.908-6.226,22.079,22.079,0,0,1-.908,6.226" transform="translate(-1760.985 -34.865)" fill="#41154c"/>
      <path id="Path_437" data-name="Path 437" d="M1425.789,1360.487a35.894,35.894,0,0,1-14.824-3.786,33.24,33.24,0,0,1-10.054-8.106c-6.772-7.719-10.986-16.647-10.017-27.019,1.438-15.4,8.955-26.925,23.5-33.287,8.961-3.921,18.168-4.74,27.5-1.717,9.366,3.033,17.106,8.353,22.169,17.062,2.658,4.573,3.656,9.607,4.318,14.786,2.332,18.249-11.942,36.122-27.434,40.5a62.129,62.129,0,0,1-15.155,1.564m-33.842-35,.448.123a8.252,8.252,0,0,1,5.655-3.492c2.636-.446,4.076,1.612,5.835,3.129,8.821-6.867,17.527-13.8,26.685-20.126a.782.782,0,0,1-.31.458q-6.765,5.2-13.532,10.4c-3.839,2.956-7.649,5.95-11.515,8.87-.885.669-1.067,1.269-.4,2.14.192.25.335.537.539.867.345-.324.613-.571.874-.824,2.9-2.809,6.231-2.138,7.8,1.586.454,1.076.847,2.177,1.3,3.339,3.077-1.512,5.866-1.516,8.014,1.507,5.444-5.336,9.133-5.191,14.011.488.159-.146.323-.284.474-.436,2.448-2.469,5.011-2.874,8.093-1.279a3.767,3.767,0,0,0,.593.289,1.168,1.168,0,0,0,1.548-1.229,4.334,4.334,0,0,1,6.043-4.491c.163.06.337.091.508.136.394-.643.735-1.249,1.125-1.823a4.171,4.171,0,0,1,3.446-2.075c.944-.011,1.206-.344,1.329-1.246.53-3.89,2.013-5.376,5.829-6.034.063-.011.117-.081.276-.2-.036-.4-.04-.874-.124-1.332a31.178,31.178,0,0,0-14.284-21.463c-13.545-8.613-27.655-8.757-41.588-1.152-10.889,5.943-16.661,15.688-18.325,27.892-.269,1.971-.238,3.983-.346,5.976m11.436,6.81-.326-.016c-.163-.322-.452-.639-.465-.967-.043-1.057-.241-1.961-1.359-2.406a3.2,3.2,0,0,0-3.408.508,2.226,2.226,0,0,0-.079,3.606c.259.24.532.464.884.769-2.208-.582-2.94-2.149-1.982-4.013a3.052,3.052,0,0,1,2.686-1.818,4.949,4.949,0,0,0,3.575-2.147,10.768,10.768,0,0,0-2-1.829,3.63,3.63,0,0,0-2.53-.56,20.234,20.234,0,0,0-4.329,2.489,4.231,4.231,0,0,0-.98,1.551l1.239,1.5-1.28.848c.4.339,1.021.624,1.167,1.065.1.289-.545.779-.753,1.227a1.678,1.678,0,0,0-.146,1.057,32.607,32.607,0,0,0,4.969,10.488c.288.4.605.776.994,1.273.259-.62.421-1.064.625-1.489a5.141,5.141,0,0,1,3.827-3.009,3.542,3.542,0,0,1,4.159,3.23,8,8,0,0,1-.453,2.027l-.277-.091a5.756,5.756,0,0,0,.054-1.846,4.212,4.212,0,0,0-1.16-2.1c-1.211-.92-3.537-.3-4.79,1.049a3.24,3.24,0,0,0-.265,4.329,40.567,40.567,0,0,0,3.05,3.469c.815.836,1.756,1.548,2.641,2.315-.271-.884-.615-1.657.149-2.338a1.622,1.622,0,0,1,2.224.025,3.1,3.1,0,0,1,1.223,1.72,3.075,3.075,0,0,0,.993,2.363c.736-.056,1.329-.289,1.69-.093,1.089.591,0,1.188-.187,1.84l3.632,1.307.48-1.061h2.389l-.184-.255c.5-.566.9-1.431,1.514-1.63,1.032-.334,1.7.553,2.3,1.332a2.653,2.653,0,0,0,.941.545c1,.493,2.427.718,2.912,1.517a2.8,2.8,0,0,0,3.444,1.4,8.1,8.1,0,0,1,.988-.057c3.036-.243,6.109-.344,8.969-1.536,2.69-1.121,5.331-2.359,7.994-3.546l-.082-.33c-1.239-.122-1.379-.973-1.286-1.91a3,3,0,0,1,4.149-2.355c.227.1.492.112.73.194.306.106.6.242.9.365-.269.356-.512.989-.813,1.018-1.171.114-1.327,1.124-1.932,1.726,4.527-1.84,12-10.072,13.376-14.553a4.056,4.056,0,0,0-5.319-.253c.182.584.527,1.1.413,1.482a1.647,1.647,0,0,1-1.063.922c-.208.051-.586-.589-.877-.906-.5.694-.5.694-.3,3.638a4.23,4.23,0,0,1,1.941-6.231,5.752,5.752,0,0,1,4.91,0c.775.347,1.149.145,1.508-.61a30.985,30.985,0,0,0,2.743-15.329c0-.057-.085-.11-.13-.165a3.65,3.65,0,0,1-1.861-.361,1.4,1.4,0,0,1,.187-1.139,5.621,5.621,0,0,1,1.721-.351c0-.021-.012-.268-.04-.513-.21-1.852-.573-2.078-2.371-1.48a5.226,5.226,0,0,0-3.1,7.166,1.379,1.379,0,0,1-.563,1.963c-2.418,1.852-4.778,3.78-7.157,5.684-.3.24-.574.51-.86.766l.154.4c.4-.09.9-.058,1.194-.289,2.624-2.065,5.208-4.179,7.811-6.27.669-.538,1.362-1.046,2.044-1.568l.237.308-12.1,9.851v-1.278c-.311.007-.728-.114-.917.041-1.38,1.137-2.714,2.33-4.062,3.5l.11.149,2.851-1.172c-.2.8-.4,1.464-.542,2.138a3.069,3.069,0,0,1-2.167,2.288c-.78.283-1.353-.2-1.342-1.084a12.814,12.814,0,0,1,.16-1.375l-.264-.251-14.38,11.3a.665.665,0,0,1,.261-.607c3.731-3.031,7.478-6.043,11.184-9.1a3.779,3.779,0,0,0,1.182-1.647c.426-1.343.66-2.746,1-4.228-1.565-1.84-5.687-1.565-6.721,1.331.171.447.428,1.205.256,1.319-.969.644-.855,1.615-1.035,2.538a27.366,27.366,0,0,1-.794,2.686l-.429-.118c.113-1.207.226-2.414.35-3.741-.76.374-1.669.032-1.969,1.018a4.464,4.464,0,0,1-1.043-.081c.146-.3.219-.7.457-.858a3.79,3.79,0,0,1,1.295-.193c-.036-.67-.085-1.361-.1-2.052-.01-.34-.1-.841.076-.993.666-.565.363-1.085-.03-1.51a6.987,6.987,0,0,0-2.014-1.8,7.736,7.736,0,0,0-8.3.927,3.507,3.507,0,0,0-1.436,3.375,6.847,6.847,0,0,1-.159,1.491l-.347.02c-.482-1.012-.952-2.03-1.45-3.033a3.243,3.243,0,0,0-2.254-1.917,4.223,4.223,0,0,0-5.124,5.423,7.439,7.439,0,0,1,.181,1.681l-.374.068a5.221,5.221,0,0,1-.708-1.556,14.21,14.21,0,0,1,0-3.576,7.48,7.48,0,0,0-.806-5.415,3.809,3.809,0,0,0-3.845-1.843,3.334,3.334,0,0,0-3.016,2.364c-.121.323-.3.623-.531,1.078-.893-1.4-.842-3.165-2.351-4.036l-1.668,1.426a14.394,14.394,0,0,1,1.8,2.028,2.013,2.013,0,0,0,1.316,1.126,1.651,1.651,0,0,1,1.29,1.825,3.547,3.547,0,0,1-.946,1.938c-.554.552-1.343.39-2.112-.133l1.584-.741-1.308-.484.263-1.188m47.336-3.049c-.439.553-1.078.992-1.109,1.471-.079,1.212,1.753,2.224,2.86,1.512,1.57-1.009,2.987-2.257,4.47-3.4l-.094-.284c-.9.718-1.546.191-2.261-.26a6.151,6.151,0,0,0-1.89-.839c-1.416-.315-2.312.673-1.976,1.8m7.127-1.5.166.214,3.313-2.642a8.432,8.432,0,0,0-.855-1.017,1.891,1.891,0,0,0-2.258-.185c-.573.309-1.362.532-.964,1.525.041.1-.378.4-.6.588s-.479.388-.719.581l.228.275a5.3,5.3,0,0,1,.827-.461c.479-.168,1.241-.537,1.426-.356.616.605-.273.855-.519,1.271a.7.7,0,0,0-.047.207m-34.794,30.8.321-.231a22,22,0,0,0-1.587-2.492c-.251-.305-.878-.3-1.334-.438a4.4,4.4,0,0,0-.2,1.611c.389,1.413,1.658,1.409,2.8,1.551m24.669-5.277a3.132,3.132,0,0,0,2.643-2.4c.14-.614-.073-.9-.73-.859a2.356,2.356,0,0,0-1.913,3.26m-1.879-16.81.309.35,4.834-3.249a3.544,3.544,0,0,0-3.83.5c.183.557.525,1.269.421,1.341a6.816,6.816,0,0,1-1.66.618l-.075.436m-38.063,14.238c-.1.065-.437.17-.52.377a1.027,1.027,0,0,0,.05.881,8.949,8.949,0,0,0,1.6,1.467c.612.422.964.078.986-.59a2.594,2.594,0,0,0-2.122-2.135m39.234-10.652c1.516-.02,2.117-.667,1.972-2.041-1.458-.078-1.978.439-1.972,2.041m-23.8,19.159,1.916.267-.76-1.363-1.156,1.1" transform="translate(-1218.329 -1125.457)" fill="#41154c"/>
      <path id="Path_438" data-name="Path 438" d="M1339.64,1594.537c1.872-4.41,2.333-9.088,2.728-13.78.974,4.953-.4,9.457-2.728,13.78" transform="translate(-1173.551 -1384.774)" fill="#41154c"/>
      <path id="Path_439" data-name="Path 439" d="M1338.591,1479.916l-3.51-10.5c.162.1.5.193.621.406a20.631,20.631,0,0,1,2.887,10.1c0,.028-.043.055,0,0" transform="translate(-1169.557 -1287.234)" fill="#41154c"/>
      <path id="Path_440" data-name="Path 440" d="M1147.756,823.547c.956-.935,26.958-2.3,28.628-1.526l-28.628,1.526" transform="translate(-1005.457 -719.906)" fill="#41154c"/>
      <path id="Path_441" data-name="Path 441" d="M1156.488,882.912c6.438-1.323,12.988-1.132,19.5-1.422a96.973,96.973,0,0,1-19.5,1.422" transform="translate(-1013.106 -772.202)" fill="#41154c"/>
      <path id="Path_442" data-name="Path 442" d="M1144.271,802.839a121.921,121.921,0,0,1,18.162-1.091c-1.066.66-17.154,1.686-18.162,1.091" transform="translate(-1002.404 -702.342)" fill="#41154c"/>
      <path id="Path_443" data-name="Path 443" d="M1142.853,853.345c4.95-.492,9.923-.688,14.9-.765a86.672,86.672,0,0,1-14.86,1.358l-.045-.593" transform="translate(-1001.161 -746.877)" fill="#41154c"/>
      <path id="Path_444" data-name="Path 444" d="M1127.11,885.428c.113.295.359.62.3.876a1.046,1.046,0,0,1-.661.627c-.146.04-.55-.325-.579-.542s.284-.454.447-.684l.493-.276" transform="translate(-986.546 -775.652)" fill="#41154c"/>
      <path id="Path_445" data-name="Path 445" d="M1528.308,865.222a7.169,7.169,0,0,1-5.485.3,7.126,7.126,0,0,1,5.485-.3" transform="translate(-1334.023 -757.596)" fill="#41154c"/>
      <path id="Path_446" data-name="Path 446" d="M1525.238,834.4c-1.8.423-3.591.9-5.369.007a7.33,7.33,0,0,1,5.369-.007" transform="translate(-1331.435 -730.507)" fill="#41154c"/>
      <path id="Path_447" data-name="Path 447" d="M1640.955,871.054c1.855-.458,3.706-.981,5.619-.271a10.919,10.919,0,0,1-5.619.271" transform="translate(-1437.508 -762.518)" fill="#41154c"/>
      <path id="Path_448" data-name="Path 448" d="M1642.7,834.549c-1.682.92-4.2.887-5.106-.022,1.669-.847,3.273-.222,5.106.022" transform="translate(-1434.563 -730.686)" fill="#41154c"/>
      <path id="Path_449" data-name="Path 449" d="M1644.964,804.253a5.749,5.749,0,0,1-4.559.19l-.017-.366,4.558-.211.018.387" transform="translate(-1437.012 -704.202)" fill="#41154c"/>
      <path id="Path_450" data-name="Path 450" d="M1519.533,805.278c1.994-.561,3.84-.12,5.963.2-1.762.469-5.252.35-5.963-.2" transform="translate(-1331.14 -705.204)" fill="#41154c"/>
      <path id="Path_451" data-name="Path 451" d="M1603.054,863.965c.451.588.923.938.888,1.225-.041.338-.518.856-.816.863a1.217,1.217,0,0,1-.869-.814c-.054-.287.394-.667.8-1.274" transform="translate(-1403.604 -756.85)" fill="#41154c"/>
      <path id="Path_452" data-name="Path 452" d="M1489.055,866.627c.489-.4.8-.832,1.06-.808.315.03.875.525.833.695a3.989,3.989,0,0,1-.766,1.162l-1.127-1.049" transform="translate(-1304.441 -758.473)" fill="#41154c"/>
      <path id="Path_453" data-name="Path 453" d="M1492.89,828.515c.471.6.912.921.9,1.226-.008.27-.487.663-.817.734-.2.043-.7-.4-.723-.661-.027-.316.3-.664.637-1.3" transform="translate(-1307.241 -725.795)" fill="#41154c"/>
      <path id="Path_454" data-name="Path 454" d="M1492.218,797.753c.43.525.879.842.841,1.08-.055.338-.469.617-.73.921-.275-.246-.751-.474-.774-.742-.027-.32.332-.674.663-1.259" transform="translate(-1306.629 -698.847)" fill="#41154c"/>
      <path id="Path_455" data-name="Path 455" d="M1607.862,835.252c-.516.369-.822.758-1.088.732-.284-.028-.531-.448-.793-.7.233-.241.458-.667.7-.677.3-.012.623.317,1.181.641" transform="translate(-1406.87 -731.135)" fill="#41154c"/>
      <path id="Path_456" data-name="Path 456" d="M1608.095,798.712c.359.547.718.853.7,1.127s-.417.536-.649.8c-.251-.242-.679-.467-.7-.731-.028-.289.315-.615.658-1.2" transform="translate(-1408.144 -699.687)" fill="#41154c"/>
      <path id="Path_457" data-name="Path 457" d="M1592.466,1378.663l-15.58,12.209-.221-.275,15.445-12.364.356.43" transform="translate(-1381.189 -1207.359)" fill="#41154c"/>
      <path id="Path_458" data-name="Path 458" d="M1599.956,1741.487c-1.313.94-1.376,2.374-1.658,3.945a4.064,4.064,0,0,1-.543-1.065c-.307-1.753,1.1-3.759,3.069-4.441a3.393,3.393,0,0,1,4.491,1.645c.49.981,1.153.778,1.9.707,2.214-.211,3.688.683,4.167,2.527a3.661,3.661,0,0,1,0,.583c-.267-.4-.426-.6-.541-.818a2.854,2.854,0,0,0-2.764-1.644,2.594,2.594,0,0,0-2.559,1.722,4.261,4.261,0,0,1-1.153,1.571,5.48,5.48,0,0,0,.546-1.585,7.478,7.478,0,0,0-.307-2.954c-.222-.537-1.143-.876-1.817-1.11-.75-.259-.785.488-1.035.958-.567,1.068-1.166,0-1.8-.042" transform="translate(-1399.628 -1523.971)" fill="#41154c"/>
      <path id="Path_459" data-name="Path 459" d="M1763.912,1771.361c-.879-1.985-2.135-3.324-4.487-2.916a5.964,5.964,0,0,0-4.8,3.957c.573.208,1.651-.432,1.5.809-.125,1-.825,1.084-1.691.751-.2,1.777.9,2.884,1.927,4.023l-.2.254a5.463,5.463,0,0,1-1.217-.807,5.024,5.024,0,0,1-.679-6.114,6.386,6.386,0,0,1,5.33-3.572c2.3-.216,4.42,1.528,4.323,3.615" transform="translate(-1536.125 -1548.564)" fill="#41154c"/>
      <path id="Path_460" data-name="Path 460" d="M1730.657,1698.253l-1.715-1.013a11.377,11.377,0,0,1,1.717-.693c.534-.125,1.134.058,1.01.753-.056.318-.568.555-1.012.953" transform="translate(-1514.587 -1486.176)" fill="#41154c"/>
      <path id="Path_461" data-name="Path 461" d="M1539.942,1726.1l-1.184.969c-.306-.383-.767-.732-.859-1.16-.055-.256.469-.636.733-.961l1.309,1.152" transform="translate(-1347.226 -1511.092)" fill="#41154c"/>
      <path id="Path_462" data-name="Path 462" d="M1966.314,1567.312c-.453-.6-.955-.988-.91-1.287a1.487,1.487,0,0,1,.88-1c.233-.072.957.51.932.743-.047.448-.47.856-.9,1.545" transform="translate(-1721.73 -1370.986)" fill="#41154c"/>
      <path id="Path_463" data-name="Path 463" d="M1595.548,1786.908c.091.065.35.154.4.31.066.2.038.614-.075.667a9.859,9.859,0,0,1-1.825.647c-.136.033-.4-.266-.523-.464-.05-.081.088-.387.208-.442.557-.255,1.138-.457,1.814-.718" transform="translate(-1395.951 -1565.366)" fill="#41154c"/>
      <path id="Path_464" data-name="Path 464" d="M1688.431,1866.664l.168,1.37-.959-.072q.064-.638.127-1.276l.664-.022" transform="translate(-1478.406 -1635.234)" fill="#41154c"/>
      <path id="Path_465" data-name="Path 465" d="M1944.423,1649.52c.833.717.927,1.194.348,1.606-.158.112-.5-.033-.756-.061l.408-1.545" transform="translate(-1702.995 -1445.012)" fill="#41154c"/>
      <path id="Path_466" data-name="Path 466" d="M1829.934,1835.224h-1.323c.047-.248.064-.7.146-.709a6.405,6.405,0,0,1,1.2.023q-.014.343-.027.686" transform="translate(-1601.899 -1607.05)" fill="#41154c"/>
      <path id="Path_467" data-name="Path 467" d="M1821.938,1843.265l.227,1.191-.763.13v-1.257l.536-.064" transform="translate(-1595.584 -1614.736)" fill="#41154c"/>
      <path id="Path_468" data-name="Path 468" d="M1445.881,1658.873h-1.106q.012-.431.024-.862l1.15.35-.067.512" transform="translate(-1265.651 -1452.45)" fill="#41154c"/>
      <path id="Path_469" data-name="Path 469" d="M1979.988,1552.586l-1.585.122c.79-1.172.823-1.176,1.585-.122" transform="translate(-1733.119 -1359.417)" fill="#41154c"/>
    </g>
  </g>
</svg>
