<svg width="24" height="24" viewBox="0 0 24 24" fill="none" xmlns="http://www.w3.org/2000/svg">
<path d="M12 23C9.34895 22.998 6.80719 22.0052 4.93226 20.241C3.05728 18.4778 2.0032 16.0862 2 13.5909C2 5.78339 11.0272 0.38483 11.4115 0.159514C11.7708 -0.0531714 12.2292 -0.0531714 12.5885 0.159514C12.9729 0.384941 22 5.78339 22 13.5909C21.9969 16.0863 20.9427 18.4779 19.0677 20.241C17.1928 22.0052 14.6512 22.998 12 23H12ZM18.6666 13.5909C18.6666 13.0136 18.1687 12.5461 17.5552 12.5461C16.9416 12.5461 16.4448 13.0136 16.4448 13.5909C16.4427 14.7004 15.975 15.7628 15.1416 16.5469C14.3083 17.3309 13.1781 17.772 12 17.773C11.3865 17.773 10.8886 18.2415 10.8886 18.8188C10.8886 19.3961 11.3865 19.8636 12 19.8636C13.7677 19.8616 15.4624 19.201 16.7115 18.0249C17.9615 16.8488 18.6646 15.2541 18.6667 13.5908L18.6666 13.5909Z" fill="#202B93"/>
</svg>
