<svg width="24" height="25" viewBox="0 0 24 25" fill="none" xmlns="http://www.w3.org/2000/svg">
<path fill-rule="evenodd" clip-rule="evenodd" d="M0 7.00599C0 5.87204 0.529335 4.80917 1.41862 4.1575L3.50002 2.63223C4.74691 1.7185 6.42864 1.80258 7.5861 2.83652L9.83087 4.84172C11.0795 5.95707 12.9205 5.95707 14.1691 4.84172L16.4139 2.83652C17.5714 1.80258 19.2531 1.7185 20.5 2.63223L22.5814 4.15749C23.4707 4.80917 24 5.87204 24 7.00599V14.249C24 15.838 23.234 17.3204 21.9617 18.1936L13.8328 23.7723C12.7204 24.5357 11.2796 24.5357 10.1672 23.7723L2.03832 18.1936C0.766029 17.3204 0 15.838 0 14.249V7.00599ZM13.7005 11.3087C14.7559 10.1761 15.8102 9.04477 16.7806 8L18.0664 9.38117C17.0711 10.4525 15.9809 11.6223 14.8934 12.7893C13.857 13.9014 12.8231 15.0109 11.876 16.0301L11.2843 16.6656L10.6414 16.085L7 12.7606L8.18345 11.2695L11.1876 14.0073C11.997 13.1368 12.8492 12.2224 13.7005 11.3087Z" fill="#202B93"/>
</svg>
