<svg id="Group_4" data-name="Group 4" xmlns="http://www.w3.org/2000/svg" xmlns:xlink="http://www.w3.org/1999/xlink" width="19.851" height="27.562" viewBox="0 0 19.851 27.562">
  <defs>
    <clipPath id="clip-path">
      <rect id="Rectangle_9" data-name="Rectangle 9" width="19.851" height="27.562" fill="#fff"/>
    </clipPath>
  </defs>
  <g id="Group_3" data-name="Group 3" clip-path="url(#clip-path)">
    <path id="Path_7" data-name="Path 7" d="M15.458,11.366c-.028-.322-.033-.7.531-.754.2-.018.271-.236.281-.442a.559.559,0,0,0-.358-.566c-.852-.424-1.7-.858-2.549-1.284-1.306-.654-2.62-1.294-3.919-1.962a.892.892,0,0,0-.9,0C6.433,7.422,4.315,8.466,2.2,9.518c-.261.13-.534.267-.522.627s.239.507.564.542c.166.018.226.134.231.288q.009.259.009.518c0,.816-.138.93-.925.76A1.912,1.912,0,0,1,.02,10.545,2.235,2.235,0,0,1,1.25,8.3c1.594-.8,3.2-1.58,4.8-2.37.609-.3,1.213-.613,1.827-.9a.576.576,0,0,0,.38-.6,1.407,1.407,0,0,1,.986-1.555A.751.751,0,0,0,9.738,2,.73.73,0,0,0,9.17,1.35a.78.78,0,0,0-.871.375c-.318.405-.674.491-1,.232-.388-.306-.279-.664-.047-1A1.97,1.97,0,0,1,9.313.032a1.936,1.936,0,0,1,1.631,1.45,2.066,2.066,0,0,1-.6,2.217c-.964.887-.957.962.208,1.54q3.013,1.5,6.031,2.978a2.213,2.213,0,0,1,.8,3.519,1.929,1.929,0,0,1-.928.505c-.834.21-1,.074-1-.876" transform="translate(0 0.001)" fill="#fff"/>
    <path id="Path_8" data-name="Path 8" d="M2.482,96.1v-14a.89.89,0,0,0-.89-.89H0V98.578H11.8L9.323,96.1Z" transform="translate(0 -71.016)" fill="#fff"/>
    <path id="Path_9" data-name="Path 9" d="M54.426,87.413h0a6.2,6.2,0,0,0-6.2-6.2H39.538V93.615h5.388l4.963,4.963H53.4l-4.967-4.966a6.2,6.2,0,0,0,6-6.2m-2.481,0a3.722,3.722,0,0,1-3.722,3.722h-6.2V83.69h6.2a3.722,3.722,0,0,1,3.722,3.722Z" transform="translate(-34.575 -71.016)" fill="#fff"/>
    <path id="Path_10" data-name="Path 10" d="M96.162,123.66c.872.161,1,.291,1.163,1.163.161-.872.291-1,1.163-1.163-.872-.161-1-.291-1.163-1.163-.161.872-.291,1-1.163,1.163" transform="translate(-84.092 -107.122)" fill="#fff"/>
    <path id="Path_11" data-name="Path 11" d="M79.379,132.925c.872.161,1,.291,1.163,1.163.161-.872.291-1,1.163-1.163-.872-.161-1-.291-1.163-1.163-.161.872-.291,1-1.163,1.163" transform="translate(-69.416 -115.224)" fill="#fff"/>
    <path id="Path_12" data-name="Path 12" d="M86.138,113.481c.554.1.637.185.739.739.1-.554.185-.637.739-.739-.554-.1-.637-.185-.739-.739-.1.554-.185.637-.739.739" transform="translate(-75.326 -98.591)" fill="#fff"/>
  </g>
</svg>
