<svg width="17" height="15" viewBox="0 0 17 15" fill="none" xmlns="http://www.w3.org/2000/svg">
<path d="M1.44575 1.43833C0.85289 1.87278 0.5 2.58136 0.5 3.33733V8.16597C0.5 9.22533 1.01069 10.2136 1.85888 10.7957L7.27811 14.5148C8.0197 15.0238 8.9803 15.0238 9.72189 14.5148L15.1411 10.7957C15.9893 10.2136 16.5 9.22533 16.5 8.16597V3.33733C16.5 2.58136 16.1471 1.87278 15.5542 1.43833L14.1667 0.421486C13.3354 -0.187665 12.2142 -0.131611 11.4426 0.557679L9.94609 1.89448C9.1137 2.63804 7.8863 2.63804 7.05391 1.89448L5.5574 0.557679C4.78576 -0.131612 3.6646 -0.187665 2.83335 0.421486L1.44575 1.43833Z" fill="#FFD06D"/>
</svg>
