<svg width="32" height="31" viewBox="0 0 32 31" fill="none" xmlns="http://www.w3.org/2000/svg">
<g clip-path="url(#clip0)">
<path d="M16.0113 1.61035C7.63757 1.61035 0.821289 7.85747 0.821289 15.5349C0.821289 18.1929 1.6435 20.7625 3.18867 22.9907L0.872129 28.5866C0.770412 28.8215 0.827325 29.0927 1.00412 29.2768C1.12521 29.3979 1.2899 29.4609 1.45337 29.4609C1.53451 29.4609 1.61806 29.4488 1.69314 29.4161L7.47185 27.0426C9.99664 28.6193 12.9406 29.4609 16.0102 29.4609C24.3839 29.4609 31.2002 23.2138 31.2002 15.5363C31.2014 7.8576 24.3851 1.61048 16.0114 1.61048L16.0113 1.61035ZM15.378 16.1683C15.378 20.0107 12.2575 23.1299 8.41629 23.1299C8.06754 23.1299 7.78296 22.8454 7.78296 22.4966V20.6863C7.78296 20.3375 8.06753 20.0541 8.41629 20.0541C10.5427 20.0541 11.4533 18.4206 11.6375 16.8004H8.41629C8.06754 16.8004 7.78296 16.5158 7.78296 16.1683V9.83868C7.78296 9.49114 8.06753 9.20535 8.41629 9.20535H14.7459C15.0934 9.20535 15.3792 9.48992 15.3792 9.83868L15.378 16.1683ZM24.2396 16.1683C24.2396 20.0107 21.1192 23.1299 17.2767 23.1299C16.928 23.1299 16.6446 22.8454 16.6446 22.4966V20.6863C16.6446 20.3375 16.9292 20.0541 17.2767 20.0541C19.4031 20.0541 20.3137 18.4206 20.4979 16.8004H17.2767C16.928 16.8004 16.6446 16.5158 16.6446 16.1683V9.83868C16.6446 9.49114 16.9292 9.20535 17.2767 9.20535H23.6063C23.9538 9.20535 24.2396 9.48992 24.2396 9.83868V16.1683Z" fill="white"/>
</g>
<defs>
<clipPath id="clip0">
<rect width="31" height="31" fill="white" transform="translate(0.5)"/>
</clipPath>
</defs>
</svg>
