<svg width="64" height="64" viewBox="0 0 64 64" fill="none" xmlns="http://www.w3.org/2000/svg">
<circle cx="32" cy="32" r="32" fill="#0890F1"/>
<path d="M13.189 15.8355C11.608 16.9941 10.667 18.8836 10.667 20.8995V33.7759C10.667 36.6009 12.0288 39.2364 14.2907 40.7886L28.742 50.7063C30.7195 52.0634 33.2811 52.0634 35.2587 50.7063L49.71 40.7886C51.9718 39.2363 53.3337 36.6009 53.3337 33.7759V20.8995C53.3337 18.8836 52.3926 16.9941 50.8117 15.8355L47.1114 13.124C44.8947 11.4996 41.905 11.649 39.8473 13.4871L35.8566 17.052C33.6368 19.0348 30.3638 19.0348 28.1441 17.052L24.1534 13.4871C22.0957 11.649 19.1059 11.4996 16.8893 13.124L13.189 15.8355Z" fill="white"/>
<path d="M29.8933 35.2497H33.1206V34.9391C33.1206 33.5982 33.6737 32.9543 34.8176 32.2725C36.2721 31.4164 37.2343 30.3179 37.2343 28.5073C37.2343 25.7573 34.9691 24.2725 31.8479 24.2725C28.9994 24.2725 26.6509 25.6891 26.6055 28.8709H30.0903C30.113 27.8179 30.9161 27.1816 31.8176 27.1816C32.7115 27.1816 33.4237 27.78 33.4237 28.6816C33.4237 29.6058 32.704 30.1967 31.757 30.8028C30.5524 31.5755 29.9009 32.3709 29.8933 34.9391V35.2497ZM31.5676 40.2194C32.6055 40.2194 33.5221 39.3406 33.5373 38.2497C33.5221 37.174 32.6055 36.3028 31.5676 36.3028C30.4767 36.3028 29.5827 37.174 29.5979 38.2497C29.5827 39.3406 30.4767 40.2194 31.5676 40.2194Z" fill="#0890F1"/>
</svg>
