<svg width="48" height="49" viewBox="0 0 48 49" fill="none" xmlns="http://www.w3.org/2000/svg">
<path d="M1.15686 30.1424L1.15606 30.0967L1.14698 30.0519C-0.824333 20.3211 1.72945 11.5566 8.49406 6.08909C12.9865 2.45805 19.7544 1.30759 25.2046 1.30762C29.9329 1.30764 33.2547 3.05708 35.4072 4.19297L35.663 4.32784L35.6797 4.3366L35.697 4.34409C39.8305 6.13436 43.2199 9.91427 45.3066 14.2184C46.1071 15.8697 46.6454 17.7439 46.9292 19.7054L46.9311 19.7187L46.9337 19.7318C48.6016 28.0752 46.3962 34.9353 42.7878 39.7081C39.1621 44.5037 34.1566 47.1523 30.2592 47.1523H30.2357L30.2122 47.1545C27.3658 47.4234 24.4546 47.4109 21.7194 46.8948L21.6921 46.8897L21.6643 46.8876C20.9741 46.8356 20.5074 46.8053 20.1653 46.7831C19.7236 46.7544 19.4893 46.7392 19.2493 46.7083C18.9563 46.6706 18.6737 46.6116 18.0167 46.4746C17.5801 46.3836 16.9782 46.258 16.098 46.0813L16.0943 46.0806C13.2401 45.5302 9.52521 43.6415 6.50613 40.8151C3.48911 37.9907 1.22973 34.2907 1.15686 30.1424Z" stroke="white"/>
<path d="M16.5683 18.3452C16.6731 18.2403 16.8005 18.1128 16.9465 17.9873C22.3557 12.9741 30.8997 13.079 33.9513 13.2888C34.1198 16.3436 34.1198 24.9999 29.2571 30.3093C29.1523 30.4348 29.0249 30.5624 28.8995 30.6673C25.8269 33.7221 21.0279 34.0368 17.6186 31.5724C17.6186 31.5724 25.5517 22.7678 24.9845 22.2185C24.4378 21.6713 15.6187 29.5707 15.6187 29.5707C13.1812 26.1806 13.4956 21.3975 16.5682 18.3452L16.5683 18.3452Z" fill="#202B93"/>
</svg>
