<svg width="91" height="17" viewBox="0 0 91 17" fill="none" xmlns="http://www.w3.org/2000/svg">
<path d="M7.98942 0.898074C8.15362 0.569131 8.42144 0.569131 8.58496 0.898074L10.6508 5.04889C10.815 5.37784 11.2484 5.69076 11.6145 5.7428L16.2347 6.41001C16.6008 6.46272 16.6842 6.71561 16.4191 6.97182L13.076 10.2025C12.8109 10.4587 12.6454 10.9645 12.708 11.3261L13.4966 15.8886C13.5592 16.2502 13.3418 16.4063 13.0148 16.2355L8.8824 14.0804C8.55469 13.9096 8.01837 13.9096 7.69131 14.0804L3.55891 16.2341C3.2312 16.4049 3.01451 16.2488 3.07709 15.8872L3.86643 11.3247C3.92901 10.9631 3.76347 10.4573 3.49834 10.2011L0.155281 6.97045C-0.109858 6.71424 -0.027083 6.46203 0.339661 6.40865L4.95993 5.74144C5.326 5.68872 5.76003 5.3758 5.92357 5.04753L7.98942 0.898074Z" fill="#FFD06D"/>
<path d="M26.5202 0.898074C26.6844 0.569131 26.9522 0.569131 27.1157 0.898074L29.1816 5.04889C29.3458 5.37784 29.7791 5.69076 30.1452 5.7428L34.7655 6.41001C35.1316 6.46272 35.215 6.71561 34.9499 6.97182L31.6068 10.2025C31.3417 10.4587 31.1761 10.9645 31.2387 11.3261L32.0274 15.8886C32.09 16.2502 31.8726 16.4063 31.5456 16.2355L27.4132 14.0804C27.0855 13.9096 26.5491 13.9096 26.2221 14.0804L22.0897 16.2341C21.762 16.4049 21.5453 16.2488 21.6079 15.8872L22.3972 11.3247C22.4598 10.9631 22.2942 10.4573 22.0291 10.2011L18.686 6.97045C18.4209 6.71424 18.5037 6.46203 18.8704 6.40865L23.4907 5.74144C23.8568 5.68872 24.2908 5.3758 24.4543 5.04753L26.5202 0.898074Z" fill="#FFD06D"/>
<path d="M45.0509 0.898074C45.2151 0.569131 45.483 0.569131 45.6465 0.898074L47.7123 5.04889C47.8765 5.37784 48.3099 5.69076 48.676 5.7428L53.2962 6.41001C53.6623 6.46272 53.7458 6.71561 53.4806 6.97182L50.1376 10.2025C49.8724 10.4587 49.7069 10.9645 49.7695 11.3261L50.5581 15.8886C50.6207 16.2502 50.4034 16.4063 50.0763 16.2355L45.9439 14.0804C45.6162 13.9096 45.0799 13.9096 44.7528 14.0804L40.6204 16.2341C40.2927 16.4049 40.076 16.2488 40.1386 15.8872L40.928 11.3247C40.9905 10.9631 40.825 10.4573 40.5599 10.2011L37.2168 6.97045C36.9517 6.71424 37.0344 6.46203 37.4012 6.40865L42.0215 5.74144C42.3875 5.68872 42.8216 5.3758 42.9851 5.04753L45.0509 0.898074Z" fill="#FFD06D"/>
<path d="M63.5822 0.898074C63.7464 0.569131 64.0142 0.569131 64.1777 0.898074L66.2436 5.04889C66.4078 5.37784 66.8412 5.69076 67.2072 5.7428L71.8275 6.41001C72.1936 6.46272 72.277 6.71561 72.0119 6.97182L68.6688 10.2025C68.4037 10.4587 68.2381 10.9645 68.3007 11.3261L69.0894 15.8886C69.152 16.2502 68.9346 16.4063 68.6076 16.2355L64.4752 14.0804C64.1475 13.9096 63.6111 13.9096 63.2841 14.0804L59.1517 16.2341C58.824 16.4049 58.6073 16.2488 58.6699 15.8872L59.4592 11.3247C59.5218 10.9631 59.3562 10.4573 59.0911 10.2011L55.7481 6.97045C55.4829 6.71424 55.5657 6.46203 55.9324 6.40865L60.5527 5.74144C60.9188 5.68872 61.3528 5.3758 61.5163 5.04753L63.5822 0.898074Z" fill="#FFD06D"/>
<path d="M82.113 0.898074C82.2772 0.569131 82.545 0.569131 82.7085 0.898074L84.7744 5.04889C84.9385 5.37784 85.3719 5.69076 85.738 5.7428L90.3583 6.41001C90.7243 6.46272 90.8078 6.71561 90.5426 6.97182L87.1996 10.2025C86.9344 10.4587 86.7689 10.9645 86.8315 11.3261L87.6202 15.8886C87.6827 16.2502 87.4654 16.4063 87.1383 16.2355L83.0059 14.0804C82.6782 13.9096 82.1419 13.9096 81.8148 14.0804L77.6824 16.2341C77.3547 16.4049 77.138 16.2488 77.2006 15.8872L77.99 11.3247C78.0525 10.9631 77.887 10.4573 77.6219 10.2011L74.2788 6.97045C74.0137 6.71424 74.0965 6.46203 74.4632 6.40865L79.0835 5.74144C79.4495 5.68872 79.8836 5.3758 80.0471 5.04753L82.113 0.898074Z" fill="#FFD06D"/>
</svg>
