<svg width="94" height="16" viewBox="0 0 94 16" fill="none" xmlns="http://www.w3.org/2000/svg">
<path d="M8.8133 0.25217C8.98113 -0.0840566 9.25488 -0.0840566 9.42202 0.25217L11.5336 4.49489C11.7014 4.83112 12.1444 5.15097 12.5186 5.20417L17.2412 5.88615C17.6153 5.94003 17.7006 6.19851 17.4296 6.4604L14.0125 9.7626C13.7415 10.0245 13.5723 10.5414 13.6363 10.9111L14.4424 15.5746C14.5064 15.9442 14.2842 16.1038 13.9499 15.9292L9.72605 13.7264C9.39108 13.5518 8.84288 13.5518 8.50858 13.7264L4.28469 15.9278C3.94972 16.1024 3.72823 15.9428 3.7922 15.5732L4.59901 10.9097C4.66298 10.54 4.49377 10.0231 4.22277 9.76121L0.805692 6.459C0.534682 6.19712 0.61929 5.93932 0.994155 5.88476L5.71672 5.20277C6.0909 5.14889 6.53454 4.82904 6.7017 4.4935L8.8133 0.25217Z" fill="#FFD06D"/>
<path d="M27.7547 0.25217C27.9225 -0.0840566 28.1963 -0.0840566 28.3634 0.25217L30.475 4.49489C30.6429 4.83112 31.0858 5.15097 31.46 5.20417L36.1826 5.88615C36.5567 5.94003 36.642 6.19851 36.371 6.4604L32.9539 9.7626C32.6829 10.0245 32.5137 10.5414 32.5777 10.9111L33.3838 15.5746C33.4478 15.9442 33.2256 16.1038 32.8914 15.9292L28.6675 13.7264C28.3325 13.5518 27.7843 13.5518 27.45 13.7264L23.2261 15.9278C22.8911 16.1024 22.6696 15.9428 22.7336 15.5732L23.5404 10.9097C23.6044 10.54 23.4352 10.0231 23.1642 9.76121L19.7471 6.459C19.4761 6.19712 19.5607 5.93932 19.9356 5.88476L24.6581 5.20277C25.0323 5.14889 25.476 4.82904 25.6431 4.4935L27.7547 0.25217Z" fill="#FFD06D"/>
<path d="M46.6956 0.25217C46.8635 -0.0840566 47.1372 -0.0840566 47.3043 0.25217L49.4159 4.49489C49.5838 4.83112 50.0267 5.15097 50.4009 5.20417L55.1235 5.88615C55.4977 5.94003 55.583 6.19851 55.3119 6.4604L51.8949 9.7626C51.6239 10.0245 51.4547 10.5414 51.5186 10.9111L52.3248 15.5746C52.3887 15.9442 52.1666 16.1038 51.8323 15.9292L47.6084 13.7264C47.2734 13.5518 46.7252 13.5518 46.3909 13.7264L42.167 15.9278C41.832 16.1024 41.6106 15.9428 41.6745 15.5732L42.4813 10.9097C42.5453 10.54 42.3761 10.0231 42.1051 9.76121L38.688 6.459C38.417 6.19712 38.5016 5.93932 38.8765 5.88476L43.599 5.20277C43.9732 5.14889 44.4169 4.82904 44.584 4.4935L46.6956 0.25217Z" fill="#FFD06D"/>
<path d="M65.637 0.25217C65.8049 -0.0840566 66.0786 -0.0840566 66.2458 0.25217L68.3573 4.49489C68.5252 4.83112 68.9681 5.15097 69.3423 5.20417L74.0649 5.88615C74.4391 5.94003 74.5244 6.19851 74.2534 6.4604L70.8363 9.7626C70.5653 10.0245 70.3961 10.5414 70.46 10.9111L71.2662 15.5746C71.3301 15.9442 71.108 16.1038 70.7737 15.9292L66.5498 13.7264C66.2148 13.5518 65.6666 13.5518 65.3323 13.7264L61.1084 15.9278C60.7735 16.1024 60.552 15.9428 60.6159 15.5732L61.4227 10.9097C61.4867 10.54 61.3175 10.0231 61.0465 9.76121L57.6294 6.459C57.3584 6.19712 57.443 5.93932 57.8179 5.88476L62.5405 5.20277C62.9146 5.14889 63.3583 4.82904 63.5254 4.4935L65.637 0.25217Z" fill="#FFD06D"/>
<path d="M84.5779 0.25217C84.7458 -0.0840566 85.0195 -0.0840566 85.1867 0.25217L87.2983 4.49489C87.4661 4.83112 87.9091 5.15097 88.2832 5.20417L93.0058 5.88615C93.38 5.94003 93.4653 6.19851 93.1943 6.4604L89.7772 9.7626C89.5062 10.0245 89.337 10.5414 89.401 10.9111L90.2071 15.5746C90.271 15.9442 90.0489 16.1038 89.7146 15.9292L85.4907 13.7264C85.1557 13.5518 84.6075 13.5518 84.2732 13.7264L80.0493 15.9278C79.7144 16.1024 79.4929 15.9428 79.5568 15.5732L80.3637 10.9097C80.4276 10.54 80.2584 10.0231 79.9874 9.76121L76.5703 6.459C76.2993 6.19712 76.3839 5.93932 76.7588 5.88476L81.4814 5.20277C81.8555 5.14889 82.2992 4.82904 82.4663 4.4935L84.5779 0.25217Z" fill="#D8DCDF"/>
<path fill-rule="evenodd" clip-rule="evenodd" d="M85.1543 0.193337V13.6183C84.8545 13.5666 84.5102 13.6026 84.2732 13.7264L80.0493 15.9278C79.7144 16.1024 79.4929 15.9428 79.5568 15.5732L80.3637 10.9097C80.4276 10.54 80.2584 10.0231 79.9874 9.76121L76.5703 6.459C76.2993 6.19712 76.3839 5.93932 76.7588 5.88476L81.4814 5.20277C81.8555 5.14889 82.2992 4.82904 82.4663 4.4935L84.5779 0.25217C84.6619 0.0840566 84.7723 0 84.8826 0C84.9792 0 85.0757 0.0644457 85.1543 0.193337Z" fill="#FFD06D"/>
</svg>
